<?xml version="1.0" encoding="utf-8"?>
<!-- Generator: Adobe Illustrator 25.3.1, SVG Export Plug-In . SVG Version: 6.00 Build 0)  -->
<svg version="1.1" id="Livello_1" xmlns="http://www.w3.org/2000/svg" xmlns:xlink="http://www.w3.org/1999/xlink" x="0px" y="0px"
	 viewBox="0 0 53 51.7" style="enable-background:new 0 0 53 51.7;" xml:space="preserve">
<style type="text/css">
	.st0{fill:#FFFFFF;}
	.st1{fill:none;stroke:#707070;}
	.st2{fill:#212223;}
</style>
<path id="Icon_awesome-arrow-down" d="M22.6,3.5l2.6-2.6c1.1-1.1,2.9-1.1,4,0c0,0,0,0,0,0l23,23c1.1,1.1,1.1,2.9,0,4c0,0,0,0,0,0
	l-23,23c-1.1,1.1-2.9,1.1-4,0c0,0,0,0,0,0l-2.6-2.6c-1.1-1.1-1.1-2.9,0-4c0,0,0,0,0,0l14.3-13.6h-34c-1.6,0-2.8-1.3-2.8-2.8
	c0,0,0,0,0,0V24c0-1.6,1.3-2.8,2.8-2.8c0,0,0,0,0,0h34L22.6,7.5C21.5,6.5,21.4,4.7,22.6,3.5C22.5,3.5,22.5,3.5,22.6,3.5z"/>
</svg>
