<?xml version="1.0" encoding="utf-8"?>
<!-- Generator: Adobe Illustrator 25.4.1, SVG Export Plug-In . SVG Version: 6.00 Build 0)  -->
<svg version="1.1" id="Livello_1" xmlns="http://www.w3.org/2000/svg" xmlns:xlink="http://www.w3.org/1999/xlink" x="0px" y="0px"
	 viewBox="0 0 57.3 57" style="enable-background:new 0 0 57.3 57;" xml:space="preserve">
<style type="text/css">
	.st0{fill:#FFFFFF;}
	.st1{fill:none;stroke:#707070;}
	.st2{fill:#212223;}
	.st3{fill:#F0051E;}
	.st4{fill:#FDFDFD;}
	.st5{enable-background:new    ;}
	.st6{fill-rule:evenodd;clip-rule:evenodd;fill:#12100C;}
	.st7{fill:#EBECEC;}
	.st8{fill:#12100C;}
	.st9{fill:#F2F2F2;}
</style>
<g id="Raggruppa_149_1_" transform="translate(-2.108)">
	<g id="Ellisse_12_1_" transform="translate(4.371 2.39)">
		<ellipse class="st0" cx="27.5" cy="26" rx="27.5" ry="26"/>
		<ellipse class="st1" cx="27.5" cy="26" rx="27" ry="25.5"/>
	</g>
	<path id="Icon_ionic-ios-arrow-dropright-circle_1_" d="M2.1,28.5C2.1,44.2,14.9,57,30.6,57s28.5-12.8,28.5-28.5S46.3,0,30.6,0
		C14.9,0,2.1,12.8,2.1,28.5C2.1,28.5,2.1,28.5,2.1,28.5z M35.6,28.5L24.4,17.4c-1-1-1.1-2.7,0-3.7s2.7-1.1,3.7,0c0,0,0,0,0,0
		l13.1,13.1c1,1,1,2.6,0.1,3.6L28.4,43.3c-1,1-2.7,1-3.7,0c-1-1-1-2.7,0-3.7L35.6,28.5z"/>
</g>
</svg>
