<?xml version="1.0" encoding="utf-8"?>
<!-- Generator: Adobe Illustrator 25.3.1, SVG Export Plug-In . SVG Version: 6.00 Build 0)  -->
<svg version="1.1" id="Livello_1" xmlns="http://www.w3.org/2000/svg" xmlns:xlink="http://www.w3.org/1999/xlink" x="0px" y="0px"
	 viewBox="0 0 44.1 44.1" style="enable-background:new 0 0 44.1 44.1;" xml:space="preserve">
<style type="text/css">
	.st0{fill:#FFFFFF;}
	.st1{fill:none;stroke:#707070;}
	.st2{fill:#212223;}
</style>
<g id="Raggruppa_77" transform="translate(-1813.894 -44)">
	<g id="Ellisse_6" transform="translate(1821 49)">
		<circle cx="17" cy="17" r="17"/>
		<circle class="st1" cx="17" cy="17" r="16.5"/>
	</g>
	<path id="Icon_ionic-ios-close-circle" class="st0" d="M1835.9,44c-12.2,0-22.1,9.9-22.1,22.1s9.9,22.1,22.1,22.1
		s22.1-9.9,22.1-22.1C1858,53.9,1848.1,44,1835.9,44C1836,44,1835.9,44,1835.9,44z M1841.5,74l-5.6-5.6l-5.6,5.6
		c-0.7,0.7-1.7,0.7-2.4,0c-0.7-0.7-0.7-1.7,0-2.4l0,0l5.6-5.6l-5.6-5.6c-0.7-0.7-0.7-1.7,0-2.4c0.7-0.7,1.7-0.7,2.4,0l5.6,5.6
		l5.6-5.6c0.7-0.7,1.7-0.7,2.4,0s0.7,1.7,0,2.4l-5.6,5.6l5.6,5.6c0.7,0.7,0.7,1.7,0,2.4C1843.3,74.7,1842.2,74.7,1841.5,74
		C1841.5,74.1,1841.5,74,1841.5,74z"/>
</g>
</svg>
