<svg width="41" height="21" viewBox="0 0 41 21" fill="none" xmlns="http://www.w3.org/2000/svg">
<g clip-path="url(#clip0_1764_1217)">
<path d="M20.16 0.358307L19.6195 0.898847H0.70054L0.16 0.358307H20.16ZM0.70054 19.8178H19.6195L20.16 20.3583H0.16L0.70054 19.8178ZM0.64048 15.8838H19.5594L19.9498 16.4244H0.28012L0.64048 15.8838ZM19.9798 4.20215L19.6195 4.74269H0.70054L0.31015 4.20215H19.9798ZM0.64048 11.9799H19.5594L19.8597 12.5205H0.37021L0.61045 11.9799H0.64048ZM19.8597 8.01596L19.6195 8.55651H0.70054L0.40024 8.01596H19.8597Z" fill="black"/>
<path d="M40.16 0.358307L39.6195 0.898847H20.7005L20.16 0.358307H40.16ZM20.7005 19.8178H39.6195L40.16 20.3583H20.16L20.7005 19.8178ZM20.6405 15.8838H39.5594L39.9498 16.4244H20.2801L20.6405 15.8838ZM39.9798 4.20215L39.6195 4.74269H20.7005L20.3102 4.20215H39.9798ZM20.6405 11.9799H39.5594L39.8597 12.5205H20.4002L20.6405 11.9799ZM39.8597 8.01596L39.6195 8.55651H20.7005L20.4002 8.01596H39.8597Z" fill="black"/>
</g>
<defs>
<clipPath id="clip0_1764_1217">
<rect width="40" height="20" fill="white" transform="translate(0.16 0.358307)"/>
</clipPath>
</defs>
</svg>
