<svg width="58" height="136" viewBox="0 0 58 136" fill="none" xmlns="http://www.w3.org/2000/svg">
<path d="M19.6192 59.9879C26.159 56.0846 28.1959 46.8399 28.1959 33.4864C24.9797 33.4864 16.7246 33.5891 11.3641 36.3625C7.71904 38.2115 7.2902 38.3142 7.2902 38.3142C2.78743 38.3142 0 35.7462 0 32.5619C0 29.3776 3.00185 26.8097 7.2902 26.8097L11.3641 28.864C16.7246 31.5347 24.9797 31.7402 28.1959 31.7402C27.9815 23.5227 27.1238 15.2024 24.122 9.34743L22.8355 6.88218C22.8355 2.56798 25.5157 0 29.1608 0C32.4843 0 35.1645 2.56798 35.1645 6.88218L33.878 9.34743C30.7689 15.3051 29.9113 23.5227 29.8041 31.7402C33.0203 31.7402 41.2754 31.6375 46.6359 28.864L50.7098 26.8097C55.1054 26.8097 58 29.2749 58 32.5619C58 35.8489 55.2126 38.3142 50.7098 38.3142C50.7098 38.3142 50.1738 38.2115 46.6359 36.3625C41.2754 33.6918 33.0203 33.4864 29.8041 33.4864C29.8041 46.8399 31.841 55.9819 38.3808 59.9879C30.4473 73.4441 29.8041 99.3293 29.8041 111.758V136H28.3031V111.758C28.3031 99.3293 27.6599 73.4441 19.7264 59.9879H19.6192Z" fill="black"/>
</svg>
