<svg width="137" height="58" viewBox="0 0 137 58" fill="none" xmlns="http://www.w3.org/2000/svg">
<path d="M76.571 19.6192C80.503 26.159 89.8157 28.1959 103.267 28.1959C103.267 24.9797 103.164 16.7246 100.37 11.3641C98.5076 7.71904 98.4041 7.2902 98.4041 7.2902C98.4041 2.78743 100.991 -1.57473e-06 104.199 -1.43445e-06C107.406 -1.29417e-06 109.993 3.00185 109.993 7.2902L107.924 11.3641C105.233 16.7246 105.026 24.9797 105.026 28.1959C113.304 27.9815 121.686 27.1238 127.584 24.122L130.067 22.8355C134.413 22.8355 137 25.5157 137 29.1608C137 32.4843 134.413 35.1645 130.067 35.1645L127.584 33.878C121.582 30.769 113.304 29.9113 105.026 29.8041C105.026 33.0203 105.13 41.2754 107.924 46.6359L109.993 50.7098C109.993 55.1054 107.51 58 104.199 58C100.887 58 98.4041 55.2126 98.4041 50.7098C98.4041 50.7098 98.5076 50.1738 100.37 46.6359C103.06 41.2754 103.267 33.0203 103.267 29.8041C89.8157 29.8041 80.6065 31.841 76.571 38.3808C63.0159 30.4473 36.9403 29.8041 24.4199 29.8041L-4.21571e-07 29.8041L-3.55994e-07 28.3031L24.4199 28.3031C36.9403 28.3031 63.0159 27.6599 76.571 19.7264L76.571 19.6192Z" fill="black"/>
</svg>
