<svg width="70" height="70" viewBox="0 0 24 24" fill="none" xmlns="http://www.w3.org/2000/svg">
<g clip-path="url(#clip0_1770_1255)">
<path d="M0.0693636 12.4245L0.156069 12.3379L7.3526 12.0087C7.3526 12.0087 7.43931 12.026 7.49133 12.026C7.49133 12.0606 7.50867 12.0953 7.50867 12.13V12.2513C7.50867 12.2513 7.38728 12.2686 7.38728 12.2859L1.16185 13.0137C1.16185 13.0137 0.971098 12.8924 0.884392 12.8058C0.763005 12.6845 0.6763 12.6671 0.589595 12.6671H0.312138C0.0693636 12.6671 -0.0693648 12.6325 -0.0173416 12.5458C-0.0173416 12.5285 -0.0173416 12.4765 0.0520225 12.4245H0.0693636ZM0.381502 11.1076C0.381502 11.1076 0.450866 11.0383 0.485549 11.0209C0.554913 11.0383 0.606936 11.0209 0.693641 11.0383C0.780346 11.0556 0.832369 11.0556 0.884392 11.0383C0.919075 11.0383 0.988439 10.969 1.0578 10.917L1.17919 10.7783L7.43931 11.4368L7.52601 11.5754L7.43931 11.6967L0.485549 11.4541L0.381502 11.3328V11.2289C0.381502 11.2289 0.381502 11.1596 0.381502 11.1076ZM2.63584 13.7935L3.36416 13.5162L7.31792 12.7711C7.31792 12.7711 7.40462 12.8058 7.43931 12.8058C7.45665 12.8231 7.50867 12.8751 7.50867 12.8924C7.50867 12.9617 7.50867 12.9964 7.47399 13.0137L7.40462 13.083L3.36416 14.2267L3.22543 14.3134C3.03468 14.2267 2.91329 14.1921 2.82659 14.1921C2.63584 14.2614 2.49711 14.2614 2.39306 14.2614C2.21965 14.2614 2.16763 14.1921 2.16763 14.1227C2.16763 14.0534 2.35838 13.9321 2.65318 13.8108L2.63584 13.7935ZM2.3237 7.36462C2.3237 7.36462 2.42775 7.27798 2.49711 7.27798C2.60116 7.27798 2.73988 7.38195 2.91329 7.50325C3.10405 7.62455 3.22543 7.69386 3.2948 7.62455C3.3815 7.52058 3.52023 7.62455 3.83237 7.79783C4.12717 7.98845 4.36994 8.17906 4.47399 8.24837L7.87283 10.1025C7.89017 10.2065 7.89017 10.2758 7.87283 10.2758L7.66474 10.3625L3.50289 8.45632C3.36416 8.387 3.19075 8.2657 3.05202 8.17906C2.91329 8.07509 2.77457 7.93646 2.63584 7.7805C2.44509 7.64187 2.4104 7.5379 2.34104 7.48592C2.27168 7.4166 2.27168 7.38195 2.34104 7.36462H2.3237ZM2.37572 15.509C2.37572 15.509 2.39306 15.4397 2.4104 15.4051L7.54335 13.5162C7.68208 13.5162 7.75144 13.5162 7.76879 13.5509C7.80347 13.5682 7.80347 13.6722 7.76879 13.7762L3.20809 15.8729C3.20809 15.8729 3.10405 15.8729 3.06936 15.8556C3.05202 15.8209 3.06936 15.7863 3.10405 15.7343C3.10405 15.613 3.03468 15.5957 2.98266 15.5264C2.94798 15.509 2.86127 15.5264 2.77457 15.5957C2.67052 15.665 2.58381 15.717 2.56647 15.717C2.39306 15.717 2.35838 15.6823 2.3237 15.613C2.30636 15.5957 2.35838 15.5437 2.35838 15.509H2.37572ZM2.47977 9.73863L2.68786 9.66931L3.01734 9.80794C3.13873 9.82527 3.20809 9.80794 3.22543 9.73863C3.13873 9.6 3.0867 9.51335 3.12139 9.44404C3.13873 9.40938 3.15607 9.37473 3.22543 9.34007C3.2948 9.32274 3.34682 9.32274 3.41618 9.32274L7.38728 10.761L7.49133 10.8996L7.3526 11.0209L2.54913 9.98123C2.54913 9.98123 2.47977 9.87725 2.42775 9.85993C2.39306 9.82527 2.39306 9.79061 2.39306 9.75595C2.39306 9.73863 2.42775 9.73863 2.49711 9.7213L2.47977 9.73863ZM3.32948 3.65631C3.32948 3.65631 3.36416 3.65632 3.41618 3.69097L8.65318 8.88953C8.67052 8.9935 8.65318 9.01083 8.65318 9.02816C8.65318 9.06281 8.58381 9.06281 8.53179 9.09747L3.90173 5.09458C3.76301 5.00794 3.62428 4.9213 3.55491 4.78267C3.45087 4.60938 3.43353 4.54007 3.48555 4.50541C3.50289 4.47076 3.48555 4.38411 3.34682 4.22816C3.17341 4.05487 3.15607 3.9509 3.15607 3.84693C3.22543 3.7083 3.27746 3.63899 3.34682 3.63899L3.32948 3.65631ZM3.53757 18.8534C3.6763 18.7148 3.76301 18.6108 3.76301 18.5242C3.6763 18.4549 3.64162 18.4375 3.64162 18.3856L3.74566 18.2643L8.44509 14.6773L8.58381 14.9199L3.53757 19.304C3.53757 19.304 3.41618 19.3386 3.34682 19.3386C3.27746 19.3386 3.26011 19.304 3.26011 19.2693C3.26011 19.148 3.34682 18.9921 3.53757 18.8534ZM3.69364 20.4823L3.76301 20.413L8.87861 15.2318C9 15.2318 9.06936 15.1971 9.06936 15.2318V15.3704L5.11561 19.9971C4.99422 20.1184 4.89017 20.2051 4.7341 20.3264C4.59538 20.4477 4.52601 20.4477 4.45665 20.3957C4.45665 20.3957 4.3526 20.3957 4.17919 20.569C4.07514 20.7422 3.90173 20.7596 3.86705 20.7422C3.69364 20.6729 3.64162 20.6209 3.64162 20.569L3.6763 20.465L3.69364 20.4823ZM4.02312 6.37689C4.02312 6.37689 4.09249 6.30758 4.12717 6.29025L8.20231 9.46137C8.20231 9.46137 8.20231 9.54801 8.18497 9.56534L7.99422 9.66931L4.76879 7.45126C4.43931 7.27798 4.24855 7.10469 4.24855 6.91408C4.24855 6.84476 4.17919 6.77545 4.10983 6.68881C3.98844 6.56751 3.91907 6.55018 3.91907 6.49819C3.91907 6.48086 3.95376 6.41155 4.02312 6.37689ZM4.24855 16.5141C4.43931 16.3754 4.52601 16.2195 4.52601 16.0982L7.9422 14.1921C8.04624 14.1921 8.06358 14.1921 8.11561 14.2267C8.13295 14.244 8.13295 14.2614 8.11561 14.4L4.57803 16.826L4.2659 16.9126C4.14451 16.9473 4.09248 16.9473 4.09248 16.8953C4.02312 16.826 4.0578 16.7047 4.2659 16.5141H4.24855ZM4.57803 3.37906C4.57803 3.37906 4.57803 3.29242 4.6474 3.29242C4.76879 3.27509 4.92486 3.36173 5.06358 3.53502C5.18497 3.7083 5.30636 3.76029 5.39306 3.76029C5.46243 3.69097 5.47977 3.63899 5.53179 3.63899L5.65318 3.74296L9.24277 8.45632L8.96532 8.57761L4.56069 3.53502V3.36173L4.57803 3.37906ZM9.43353 15.717C9.43353 15.717 9.55491 15.717 9.60694 15.7343L9.64162 15.8729L7.43931 19.1307C7.30058 19.4599 7.09248 19.6159 6.90173 19.6159C6.83237 19.6159 6.78035 19.6852 6.65896 19.8065L6.52023 19.9451C6.52023 19.9451 6.43353 19.9451 6.39884 19.8758C6.3815 19.8585 6.31214 19.7892 6.31214 19.7372L9.45087 15.6996L9.43353 15.717ZM7.02312 4.05487C7.02312 4.05487 7.23121 4.08953 7.40462 4.24548C7.57803 4.4361 7.71676 4.52274 7.80347 4.52274L9.763 7.93646C9.72832 8.05776 9.763 8.12707 9.72832 8.12707H9.55491L7.12717 4.59206L7.04046 4.26281C7.00578 4.14151 7.00578 4.12419 7.04046 4.0722L7.02312 4.05487ZM7.49133 21.0022C7.66474 20.7942 7.66474 20.6902 7.61272 20.6209C7.54335 20.5516 7.54335 20.3783 7.78613 20.0838C7.99422 19.8065 8.13295 19.5639 8.27168 19.4253L10.1098 16.0809C10.2312 16.0462 10.2486 16.0462 10.3006 16.0809L10.3873 16.2888L8.42774 20.4303C8.39306 20.6036 8.28902 20.7596 8.20231 20.8635L7.80347 21.3487C7.66474 21.47 7.57803 21.5913 7.50867 21.626C7.40462 21.6953 7.38728 21.6953 7.36994 21.626C7.30058 21.5567 7.30058 21.522 7.30058 21.4527C7.30058 21.3487 7.36994 21.2101 7.50867 21.0195L7.49133 21.0022ZM8.06358 3.08447C8.06358 3.08447 8.13295 3.08447 8.18497 3.15379C8.27167 3.15379 8.39306 3.11913 8.39306 3.01516C8.39306 2.9805 8.39306 2.89386 8.3237 2.80722C8.25433 2.68592 8.20231 2.6166 8.20231 2.6166C8.20231 2.47798 8.23699 2.374 8.30636 2.33935C8.3237 2.33935 8.37572 2.33935 8.39306 2.35668C8.46243 2.42599 8.47977 2.39133 8.51445 2.42599L10.3873 7.57256C10.3873 7.71119 10.3873 7.7805 10.3699 7.79783C10.3526 7.83249 10.2486 7.83249 10.0925 7.79783L7.99422 3.27509C8.0289 3.15379 8.06358 3.1018 8.06358 3.08447ZM10.7688 16.5141L10.9422 16.4274L11.0636 16.5487L9.98844 21.3661C9.98844 21.3661 9.91907 21.4527 9.90173 21.4874C9.83237 21.522 9.81503 21.522 9.78035 21.5047L9.71098 21.418L9.64162 21.1754C9.64162 21.1754 9.763 20.9848 9.81503 20.8462C9.83237 20.7596 9.83237 20.6729 9.74566 20.6729C9.60694 20.7596 9.50289 20.7769 9.43353 20.7769C9.43353 20.7596 9.41618 20.7422 9.36416 20.6729L9.32948 20.4823L10.7688 16.4967V16.5141ZM9.74566 2.84187C9.6763 2.66859 9.64162 2.4953 9.64162 2.40866C9.64162 2.27003 9.71098 2.20072 9.83237 2.20072C9.90173 2.20072 10.0231 2.33935 10.1272 2.63393C10.2312 2.94585 10.3526 3.2231 10.4046 3.37906L11.1503 7.32996L11.1156 7.43393C11.1156 7.43393 11.0809 7.50325 11.0462 7.50325C10.9769 7.50325 10.9422 7.46859 10.9249 7.46859L10.8555 7.39928L9.71098 3.39639L9.62428 3.2231C9.71098 3.04982 9.74566 2.94585 9.74566 2.84187ZM11.4104 16.4967L11.6012 16.4101L11.7225 16.4967L11.4798 23.4455L11.3757 23.5148C11.3757 23.5148 11.2717 23.5841 11.2023 23.5841C11.185 23.5841 11.1329 23.5495 11.0983 23.5148L11.0289 23.4455C11.0289 23.4455 11.0289 23.3069 11.0462 23.2375C11.0809 23.1509 11.0809 23.0989 11.0462 23.0469C11.0289 23.0123 11.0289 22.9603 10.9249 22.9083L10.7514 22.735L11.3931 16.4967H11.4104ZM11.1156 0.90108C11.237 0.779781 11.2543 0.710467 11.2543 0.623824V0.20794C11.2543 0.0346543 11.3237 -0.0346598 11.3757 -2.73166e-06C11.3931 -2.73166e-06 11.4451 0.0173258 11.4624 0.0346543L11.5838 0.155954L11.9133 7.34729C11.9133 7.34729 11.8786 7.43393 11.8439 7.43393C11.8439 7.50325 11.8266 7.50325 11.7746 7.50325C11.7052 7.50325 11.6879 7.50325 11.6532 7.48592L11.5838 7.38195L10.8381 1.19567C10.8381 1.19567 11.0116 0.987723 11.0809 0.90108H11.1156ZM12.1387 16.5141C12.1387 16.5141 12.1561 16.4967 12.2081 16.4967C12.2775 16.4967 12.2948 16.4967 12.3295 16.5141C12.3295 16.5487 12.3468 16.5834 12.3642 16.618L13.1098 22.8043C13.1098 22.8043 13.0058 23.0123 12.9017 23.0989C12.7977 23.2202 12.7283 23.2895 12.7283 23.3762V23.6881C12.7283 23.896 12.6936 24 12.6069 24C12.5896 24 12.5376 23.9827 12.5202 23.9653L12.3988 23.844L12.0694 16.6527C12.0694 16.6527 12.104 16.5661 12.1387 16.5314V16.5141ZM12.5202 0.502524L12.6243 0.415882C12.6243 0.415882 12.7283 0.381225 12.7977 0.381225C12.815 0.381225 12.8671 0.381225 12.9017 0.415882C12.9017 0.43321 12.9711 0.485196 12.9711 0.502524C12.9711 0.571838 12.9711 0.623824 12.9538 0.710467C12.9191 0.779781 12.9191 0.831766 12.9538 0.849095L13.0751 1.03971C13.0751 1.03971 13.1792 1.12635 13.2486 1.17834L12.6069 7.43393L12.4162 7.50325L12.2948 7.43393L12.5376 0.485196L12.5202 0.502524ZM12.9017 16.5487C12.9017 16.5487 12.9364 16.5141 12.9711 16.5141C13.0405 16.5141 13.0751 16.5141 13.0925 16.5487L13.1618 16.618L14.3064 20.6209L14.3931 20.7942C14.3064 20.9675 14.2717 21.0715 14.2717 21.1754C14.341 21.3487 14.3757 21.522 14.3757 21.6087C14.3757 21.7473 14.3064 21.8166 14.185 21.8166C14.1156 21.8166 13.9942 21.678 13.9075 21.3834C13.7861 21.0541 13.6647 20.7942 13.6127 20.6383L12.8671 16.6874C12.8671 16.6874 12.8844 16.618 12.9017 16.5661V16.5487ZM14.0289 2.54729C14.0289 2.54729 14.0462 2.46065 14.1156 2.42599C14.185 2.40866 14.2023 2.35668 14.237 2.40866L14.3064 2.4953L14.3757 2.7379C14.3757 2.7379 14.2543 2.94585 14.2023 3.03249C14.185 3.15379 14.185 3.24043 14.2717 3.27509C14.4104 3.15379 14.5145 3.1018 14.5838 3.15379L14.6185 3.27509C14.6185 3.27509 14.6532 3.37906 14.6879 3.41372L13.2486 7.38195L13.0751 7.48592L12.9538 7.36462L14.0289 2.54729ZM13.6301 16.2022C13.6301 16.2022 13.7514 16.1675 13.9075 16.2022L16.0058 20.7596C15.9711 20.8635 15.9364 20.8982 15.9364 20.9328C15.9364 20.9675 15.8671 20.9328 15.815 20.8635C15.7283 20.8635 15.6069 20.8982 15.6069 21.0022C15.6069 21.0368 15.6243 21.1061 15.6936 21.2274L15.7977 21.4007C15.7977 21.5393 15.763 21.6433 15.6936 21.678C15.6763 21.678 15.6243 21.678 15.6069 21.6606C15.5376 21.626 15.5202 21.626 15.4855 21.5913L13.6127 16.4448C13.6127 16.3061 13.6127 16.2368 13.6301 16.2195V16.2022ZM15.5896 3.50036C15.6243 3.30974 15.6936 3.20577 15.815 3.04982C15.9364 2.91119 16.0578 2.75523 16.2139 2.6166C16.3699 2.47798 16.4393 2.33935 16.5087 2.30469C16.6127 2.28736 16.6301 2.28736 16.6474 2.30469C16.7168 2.374 16.7168 2.42599 16.7168 2.4953C16.7168 2.6166 16.6994 2.7379 16.5087 2.94585C16.3699 3.11913 16.3353 3.24043 16.3873 3.29242C16.4566 3.36173 16.3873 3.53502 16.2139 3.79494C16.0058 4.10686 15.8671 4.33213 15.7283 4.50541L13.8902 7.84982C13.7688 7.86715 13.7514 7.86715 13.6994 7.84982L13.6127 7.64187L15.5723 3.50036H15.5896ZM14.289 15.8903H14.4624L16.8902 19.4253L16.9769 19.7545C16.9769 19.7545 17.0116 19.8931 16.9769 19.9451C16.9075 19.9625 16.7688 19.9105 16.6301 19.7372C16.4393 19.5639 16.3006 19.4946 16.2139 19.4946L14.2543 16.0809C14.289 15.9596 14.2543 15.8903 14.289 15.8903ZM16.5607 4.76534C16.6994 4.4361 16.9075 4.28014 17.0983 4.28014C17.1676 4.28014 17.2197 4.21083 17.341 4.08953L17.4798 3.9509C17.4798 3.9509 17.5665 3.96823 17.6185 4.02021C17.6185 4.03754 17.6879 4.10686 17.6879 4.15884L14.5491 8.23104C14.5491 8.23104 14.4277 8.19639 14.3757 8.16173L14.341 8.0231L16.5434 4.76534H16.5607ZM15 15.4051L19.4046 20.4823V20.6209C19.4046 20.6209 19.4046 20.7076 19.3353 20.7076C19.2139 20.7422 19.0925 20.6383 18.9364 20.4823C18.7977 20.2917 18.659 20.2397 18.5896 20.2397C18.5202 20.309 18.5029 20.361 18.4509 20.361L18.3295 20.257L14.7399 15.5437L15.0173 15.4224L15 15.4051ZM18.8844 3.91624C19.0058 3.77761 19.0925 3.69097 19.2659 3.56967C19.4046 3.44837 19.474 3.44837 19.5434 3.50036C19.5434 3.53502 19.6474 3.48303 19.8208 3.30974C19.9249 3.20577 20.0983 3.13646 20.1329 3.17112C20.3064 3.24043 20.3584 3.29242 20.3584 3.30974C20.3584 3.37906 20.3584 3.41372 20.3237 3.43104L20.2543 3.50036L15.1387 8.68159C15.0173 8.71624 14.948 8.71624 14.948 8.68159C14.948 8.66426 14.948 8.61227 14.9306 8.56029L18.9017 3.93357L18.8844 3.91624ZM15.3295 14.9718C15.3295 14.9718 15.3988 14.9372 15.4509 14.9025L20.0809 18.9054C20.2197 18.9921 20.3584 19.0787 20.4277 19.2347C20.5318 19.3733 20.5491 19.4599 20.4971 19.4773C20.4798 19.5119 20.4971 19.5986 20.6358 19.7545C20.8092 19.9278 20.8266 20.0318 20.8266 20.1357C20.7572 20.2744 20.7052 20.3437 20.6358 20.3437C20.6185 20.3437 20.5491 20.309 20.5491 20.2744L20.4798 20.2397L15.2948 15.1105C15.2775 15.0065 15.2948 14.9892 15.2948 14.9718H15.3295ZM20.4451 4.60938C20.4451 4.60938 20.5665 4.59206 20.6358 4.59206C20.7052 4.59206 20.7225 4.60938 20.7225 4.66137C20.7225 4.78267 20.6358 4.93863 20.4971 5.05993C20.3064 5.19855 20.2197 5.30252 20.2197 5.4065C20.3064 5.47581 20.341 5.49314 20.341 5.54512L20.237 5.68375L15.5376 9.25343L15.3988 9.01083L20.4451 4.60938ZM15.815 14.4347L16.0058 14.3307L19.2312 16.5487C19.5607 16.7393 19.7514 16.8953 19.7514 17.0859C19.7514 17.1552 19.8208 17.2245 19.8902 17.3112C20.0116 17.4325 20.0809 17.4845 20.0809 17.5018C20.0809 17.5191 20.0462 17.5884 19.9769 17.5884C19.9595 17.6578 19.9075 17.6924 19.8555 17.7097L15.7977 14.5386C15.7977 14.5386 15.7977 14.452 15.815 14.4347ZM15.9017 9.54801L19.4393 7.12202C19.5434 7.05271 19.6474 7.01805 19.7688 7.01805C19.8555 7.01805 19.9075 7.01805 19.9075 7.03538C19.9769 7.10469 19.9075 7.22599 19.7341 7.38195C19.5434 7.57256 19.4566 7.71119 19.4566 7.79783L16.0405 9.75595C15.9364 9.73863 15.9191 9.73863 15.8671 9.68664C15.8497 9.66931 15.8497 9.61733 15.8671 9.54801H15.9017ZM16.1445 13.7415L16.3526 13.6375L20.5145 15.5437C20.6532 15.613 20.8266 15.7343 20.9653 15.8209C21.104 15.9249 21.2428 16.0635 21.3988 16.2195C21.5723 16.3581 21.6069 16.4621 21.6763 16.5141C21.7457 16.5834 21.7457 16.618 21.6763 16.6354C21.6069 16.7047 21.5723 16.7393 21.5029 16.7393C21.3988 16.7393 21.2601 16.618 21.0867 16.4967C20.896 16.3754 20.7746 16.3061 20.7052 16.3754C20.6185 16.4794 20.4798 16.3754 20.1676 16.2022C19.8728 16.0116 19.6301 15.8209 19.526 15.7516L16.1272 13.8975C16.0925 13.7935 16.0925 13.7588 16.1272 13.7588L16.1445 13.7415ZM16.2139 10.1199L20.7746 8.04043L20.9133 8.05776C20.9306 8.07509 20.9133 8.12707 20.8786 8.17906C20.8786 8.28303 20.948 8.31769 21 8.387C21.0347 8.40433 21.1214 8.387 21.2428 8.28303C21.3295 8.24837 21.3815 8.24837 21.4162 8.24837C21.5896 8.24837 21.6243 8.24837 21.659 8.28303C21.6763 8.31769 21.659 8.387 21.6243 8.40433C21.6243 8.47364 21.6069 8.5083 21.5896 8.5083L16.4566 10.3798C16.3179 10.3798 16.2486 10.3798 16.2312 10.3625C16.1965 10.3278 16.1965 10.2758 16.2312 10.1199H16.2139ZM16.5087 11.7141L16.6127 11.6448L22.8382 10.8996C22.8382 10.8996 23.0289 10.9863 23.1329 11.1076C23.237 11.1942 23.3237 11.2462 23.4104 11.2462H23.8092C23.948 11.2635 24.052 11.3155 24.0173 11.3675C24.0173 11.3848 24.0173 11.4368 23.948 11.4888L23.8613 11.5754L16.6647 11.9047C16.6647 11.9047 16.578 11.9047 16.5607 11.87C16.526 11.8527 16.4913 11.8527 16.4913 11.7834V11.6967L16.5087 11.7141ZM16.5607 12.2859L23.5145 12.5285L23.6012 12.6498L23.6358 12.7538C23.6358 12.7538 23.6012 12.8578 23.6012 12.8751L23.5145 12.9791C23.5145 12.9791 23.3931 12.9791 23.3064 12.9444C23.2197 12.9271 23.1676 12.9271 23.1156 12.9444C23.0809 12.9444 23.0289 12.9791 22.9769 13.031L22.8382 13.2217L16.578 12.5632L16.4913 12.4245L16.578 12.3032L16.5607 12.2859ZM16.5607 10.917L16.5954 10.8477L20.6358 9.68664L20.7746 9.6C20.9653 9.68664 21.0867 9.73863 21.1734 9.73863C21.3468 9.65198 21.5029 9.65198 21.6069 9.65198C21.7803 9.65198 21.8324 9.7213 21.8324 9.79061C21.8324 9.85993 21.659 9.98123 21.3295 10.0852L20.6185 10.3625L16.6647 11.1076L16.578 11.0903C16.5087 11.0556 16.474 11.0209 16.474 11.0036C16.474 10.969 16.5087 10.8996 16.5434 10.8996L16.5607 10.917ZM16.6474 12.9617L21.4509 14.0188C21.4509 14.0188 21.5202 14.1054 21.5723 14.1227C21.6069 14.1574 21.6069 14.1921 21.6069 14.2267C21.6069 14.244 21.5723 14.244 21.5029 14.2614L21.2948 14.3307L20.9653 14.1921C20.8439 14.1747 20.7746 14.1921 20.7572 14.2614C20.8439 14.4 20.896 14.504 20.8613 14.556C20.8439 14.5906 20.8266 14.5906 20.7572 14.6253L20.5665 14.6946L16.5954 13.2563L16.4913 13.1177L16.6301 12.9964L16.6474 12.9617Z" fill="url(#paint0_radial_1770_1255)"/>
</g>
<defs>
<radialGradient id="paint0_radial_1770_1255" cx="0" cy="0" r="1" gradientUnits="userSpaceOnUse" gradientTransform="translate(11.9979 11.9957) rotate(90) scale(12.0043 12.0261)">
<stop offset="0.545" stop-color="white"/>
<stop offset="1" stop-color="#51C0FF"/>
</radialGradient>
<clipPath id="clip0_1770_1255">
<rect width="70" height="70" fill="white"/>
</clipPath>
</defs>
</svg>
