<svg width="137" height="58" viewBox="0 0 137 58" fill="none" xmlns="http://www.w3.org/2000/svg">
<path d="M60.429 38.3808C56.497 31.841 47.1843 29.8041 33.7326 29.8041C33.7326 33.0203 33.8361 41.2754 36.6299 46.6359C38.4924 50.281 38.5959 50.7098 38.5959 50.7098C38.5959 55.2126 36.0091 58 32.8014 58C29.5937 58 27.0068 54.9982 27.0068 50.7098L29.0763 46.6359C31.7666 41.2754 31.9736 33.0203 31.9736 29.8041C23.6956 30.0185 15.3142 30.8762 9.41616 33.878L6.93278 35.1645C2.58686 35.1645 -1.11481e-06 32.4843 -1.27407e-06 28.8392C-1.41928e-06 25.5157 2.58686 22.8355 6.93278 22.8355L9.41616 24.122C15.4177 27.2311 23.6956 28.0887 31.9736 28.1959C31.9736 24.9797 31.8701 16.7246 29.0763 11.3641L27.0068 7.29021C27.0068 2.89464 29.4902 5.83939e-06 32.8014 5.69459e-06C36.1125 5.54979e-06 38.5959 2.78743 38.5959 7.29021C38.5959 7.29021 38.4924 7.82625 36.6299 11.3641C33.9396 16.7246 33.7326 24.9797 33.7326 28.1959C47.1843 28.1959 56.3935 26.159 60.429 19.6192C73.9841 27.5527 100.06 28.1959 112.58 28.1959L137 28.1959L137 29.6969L112.58 29.6969C100.06 29.6969 73.9841 30.3401 60.429 38.2736L60.429 38.3808Z" fill="black"/>
</svg>
