<svg width="48" height="70" viewBox="0 0 24 39" fill="none" xmlns="http://www.w3.org/2000/svg">
<path d="M9.5375 28.7851V0.570407C9.5375 -0.0886218 10.7247 -0.253379 10.883 0.488028C10.9622 0.94111 11.8724 2.79463 14.6031 5.01885C19.9061 9.30253 23.6261 12.1858 23.9823 17.4168C24.2593 21.6181 21.2912 26.8492 15.2362 30.515L14.9988 30.0619C18.4022 27.2611 21.0142 23.5952 21.0142 20.3824C21.0142 15.8516 14.1677 13.7922 11.0809 10.497V29.2793C11.0809 33.8925 9.3792 39 4.94683 39C2.4932 39 0 37.2289 0 34.2632C0 29.65 3.52215 28.1672 9.49792 28.7851H9.5375Z" fill="white"/>
</svg>
