<svg width="70" height="70" viewBox="0 0 35 39" fill="none" xmlns="http://www.w3.org/2000/svg">
<path fill-rule="evenodd" clip-rule="evenodd" d="M13.5375 21.102V28.7851H13.4979C7.52214 28.1672 4 29.65 4 34.2632C4 37.2289 6.4932 39 8.94683 39C13.3792 39 15.0809 33.8925 15.0809 29.2793V19.9419L21.4512 15.1537C23.4348 16.6003 25.0141 18.2063 25.0141 20.3824C25.0141 23.5952 22.4022 27.2611 18.9988 30.0619L19.2362 30.515C25.2912 26.8492 28.2593 21.6181 27.9822 17.4168C27.8333 15.2285 27.0956 13.4511 25.8996 11.8101L34.085 5.65759C34.4177 5.40752 34.4846 4.9351 34.2346 4.60241C33.9845 4.26972 33.5121 4.20274 33.1794 4.4528L24.9513 10.6374C23.4117 8.90063 21.3635 7.24727 18.9765 5.32035C18.8529 5.2206 18.7284 5.12011 18.603 5.01885C15.8724 2.79463 14.9622 0.941111 14.883 0.488028C14.7247 -0.25338 13.5375 -0.088621 13.5375 0.570406V19.2165L0.602388 28.9391C0.269697 29.1892 0.202714 29.6616 0.452781 29.9943C0.702848 30.327 1.17527 30.394 1.50796 30.1439L13.5375 21.102ZM15.0809 18.0564V19.9419L13.5375 21.102V19.2165L15.0809 18.0564ZM15.0809 18.0564V10.497C16.1524 11.6408 17.6768 12.6357 19.2106 13.6367C19.5229 13.8405 19.8355 14.0445 20.1448 14.2502L15.0809 18.0564ZM20.1448 14.2502C20.591 14.5468 21.0302 14.8466 21.4512 15.1537L25.8996 11.8101C25.6098 11.4125 25.2931 11.0229 24.9513 10.6374L20.1448 14.2502Z" fill="white"/>
</svg>
