<svg width="58" height="136" viewBox="0 0 58 136" fill="none" xmlns="http://www.w3.org/2000/svg">
<path d="M38.3808 76.0121C31.841 79.9154 29.8041 89.1601 29.8041 102.514C33.0203 102.514 41.2754 102.411 46.6359 99.6375C50.281 97.7885 50.7098 97.6858 50.7098 97.6858C55.2126 97.6858 58 100.254 58 103.438C58 106.622 54.9982 109.19 50.7098 109.19L46.6359 107.136C41.2754 104.465 33.0203 104.26 29.8041 104.26C30.0185 112.477 30.8761 120.798 33.878 126.653L35.1645 129.118C35.1645 133.432 32.4843 136 28.8392 136C25.5157 136 22.8355 133.432 22.8355 129.118L24.122 126.653C27.231 120.695 28.0887 112.477 28.1959 104.26C24.9797 104.26 16.7246 104.363 11.3641 107.136L7.29019 109.19C2.89463 109.19 -1.09504e-05 106.725 -1.06631e-05 103.438C-1.03759e-05 100.151 2.78742 97.6858 7.29019 97.6858C7.29019 97.6858 7.82624 97.7885 11.3641 99.6375C16.7246 102.308 24.9797 102.514 28.1959 102.514C28.1959 89.1601 26.159 80.0181 19.6192 76.0121C27.5527 62.5559 28.1959 36.6707 28.1959 24.2417L28.1959 3.52085e-06L29.6969 3.65212e-06L29.6969 24.2417C29.6969 36.6707 30.3401 62.5559 38.2736 76.0121L38.3808 76.0121Z" fill="black"/>
</svg>
