<?xml version="1.0" encoding="utf-8"?>
<!-- Generator: Adobe Illustrator 25.4.1, SVG Export Plug-In . SVG Version: 6.00 Build 0)  -->
<svg version="1.1" id="Livello_1" xmlns="http://www.w3.org/2000/svg" xmlns:xlink="http://www.w3.org/1999/xlink" x="0px" y="0px"
	 viewBox="0 0 57.3 57" style="enable-background:new 0 0 57.3 57;" xml:space="preserve">
<style type="text/css">
	.st0{fill:#FFFFFF;}
	.st1{fill:none;stroke:#707070;}
	.st2{fill:#212223;}
	.st3{fill:#F0051E;}
	.st4{fill:#FDFDFD;}
	.st5{enable-background:new    ;}
	.st6{fill-rule:evenodd;clip-rule:evenodd;fill:#12100C;}
	.st7{fill:#EBECEC;}
	.st8{fill:#12100C;}
	.st9{fill:#F2F2F2;}
</style>
<g id="Raggruppa_149" transform="translate(-2.108)">
	<g id="Ellisse_12" transform="translate(4.371 2.39)">
		<ellipse class="st0" cx="26.3" cy="25" rx="26" ry="27.5"/>
		<ellipse class="st1" cx="26.3" cy="25" rx="25.5" ry="27"/>
	</g>
	<path id="Icon_ionic-ios-arrow-dropright-circle" d="M30.7,57.1c15.7,0,28.5-12.8,28.5-28.5S46.5,0.1,30.7,0.1S2.2,12.9,2.2,28.6
		C2.2,44.4,15,57.1,30.7,57.1C30.7,57.1,30.7,57.1,30.7,57.1z M30.7,23.6L19.6,34.9c-1,1-2.7,1.1-3.7,0c-1-1-1.1-2.7,0-3.7
		c0,0,0,0,0,0L29,18c1-1,2.6-1,3.6-0.1l12.9,12.9c1,1,1,2.7,0,3.7c-1,1-2.7,1-3.7,0L30.7,23.6z"/>
</g>
</svg>
